#!OML:ASF E:\motion texture\Top Level 1\Subject 1\Session 1\male.ASF
:FULLY-SPECIFIED
:DEGREES
683
root -50.4163 17.7158 1.42191 96.6492 -79.2647 -91.8642
lowerback -3.31178 2.86359 8.78548
upperback 0.312194 3.27604 3.42395
thorax 2.48439 1.6766 -1.17597
lowerneck -16.1695 -2.91144 -6.97045
upperneck 7.12946 -3.02377 5.28521
head 4.94434 -1.33042 2.51152
rclavicle -3.85766e-015 6.43068e-014
rhumerus -26.4099 6.71973 -60.7019
rradius 100.508
rwrist 6.49498
rhand -15.0951 -24.4882
rfingers 7.12502
rthumb 11.073 -54.1761
lclavicle -3.85766e-015 6.43068e-014
lhumerus -34.245 -2.50927 93.9254
lradius 49.0751
lwrist -16.8518
lhand -11.779 13.8094
lfingers 7.12502
lthumb 14.2699 43.2991
rfemur -1.20358 5.57745 36.0641
rtibia 20.0115
rfoot -17.2523 -13.608
rtoes 6.56357
lfemur -34.6375 7.25213 -6.24333
ltibia 52.5082
lfoot -7.95791 -0.076442
ltoes -1.37316
684
root -50.5836 17.6719 1.4089 97.1323 -79.1777 -92.1959
lowerback -3.63315 3.04599 8.85944
upperback 0.322782 3.47798 3.35853
thorax 2.70258 1.78585 -1.25162
lowerneck -16.0426 -2.93768 -7.08781
upperneck 6.93854 -3.03284 5.241
head 4.86584 -1.34256 2.51623
rclavicle 1.45548e-014 4.25399e-014
rhumerus -26.4099 6.71973 -60.7019
rradius 100.508
rwrist 6.49498
rhand -15.0951 -24.4882
rfingers 7.12502
rthumb 11.073 -54.1761
lclavicle 1.45548e-014 4.25399e-014
lhumerus -34.245 -2.50927 93.9254
lradius 49.0751
lwrist -16.8518
lhand -11.779 13.8094
lfingers 7.12502
lthumb 14.2699 43.2991
rfemur -0.972184 5.48214 36.2173
rtibia 20.4679
rfoot -17.9001 -13.5788
rtoes 5.8168
lfemur -34.6375 7.25213 -6.24333
ltibia 52.5082
lfoot -7.95791 -0.076442
ltoes -1.37316
685
root -50.7541 17.6261 1.3959 97.5176 -79.1515 -92.4782
lowerback -3.98333 3.19504 8.82947
upperback 0.379086 3.63374 3.30517
thorax 2.97397 1.87372 -1.25603
lowerneck -15.8979 -2.96665 -7.04665
upperneck 6.69374 -3.05945 5.01518
head 4.76316 -1.37084 2.4367
rclavicle -6.93883e-015 -4.73604e-014
rhumerus -26.4099 6.71973 -60.7019
rradius 100.508
rwrist 6.49498
rhand -15.0951 -24.4882
rfingers 7.12502
rthumb 11.073 -54.1761
lclavicle -6.93883e-015 -4.73604e-014
lhumerus -34.245 -2.50927 93.9254
lradius 49.0751
lwrist -16.8518
lhand -11.779 13.8094
lfingers 7.12502
lthumb 14.2699 43.2991
rfemur -0.676916 5.37233 36.309
rtibia 20.9474
rfoot -18.6004 -13.6199
rtoes 5.05239
lfemur -34.6375 7.25213 -6.24333
ltibia 52.5082
lfoot -7.95791 -0.076442
ltoes -1.37316
686
root -50.9193 17.576 1.3835 97.6401 -79.2227 -92.4383
lowerback -5.39104 3.45166 7.36479
upperback 1.10025 3.79256 4.2516
thorax 4.37448 1.95414 0.656568
lowerneck -16.0623 -3.15541 -7.88752
upperneck 6.01748 -3.0425 4.31493
head 4.57662 -1.42682 2.35065
rclavicle -1.74185e-014 -1.43125e-014
rhumerus -26.4099 6.71973 -60.7019
rradius 100.508
rwrist 6.49498
rhand -15.0951 -24.4882
rfingers 7.12502
rthumb 11.073 -54.1761
lclavicle -1.74185e-014 -1.43125e-014
lhumerus -34.245 -2.50927 93.9254
lradius 49.0751
lwrist -16.8518
lhand -11.779 13.8094
lfingers 7.12502
lthumb 14.2699 43.2991
rfemur -0.566132 5.20432 36.2515
rtibia 21.5404
rfoot -19.3416 -13.6257
rtoes 3.91732
lfemur -34.6375 7.25213 -6.24333
ltibia 52.5082
lfoot -7.95791 -0.076442
ltoes -1.37316
687
root -51.0904 17.528 1.37359 98.4167 -79.3047 -93.1563
lowerback -5.52925 3.53256 7.45456
upperback 1.07395 3.89875 4.0084
thorax 4.4528 2.01657 0.374267
lowerneck -16.0244 -3.08903 -8.00722
upperneck 6.02935 -2.95619 4.55187
head 4.575 -1.37249 2.45255
rclavicle -4.96962e-014 -2.5842e-014
rhumerus -26.4099 6.71973 -60.7019
rradius 100.508
rwrist 6.49498
rhand -15.0951 -24.4882
rfingers 7.12502
rthumb 11.073 -54.1761
lclavicle -4.96962e-014 -2.5842e-014
lhumerus -34.245 -2.50927 93.9254
lradius 49.0751
lwrist -16.8518
lhand -11.779 13.8094
lfingers 7.12502
lthumb 14.2699 43.2991
rfemur -0.138214 5.28909 36.2464
rtibia 21.8874
rfoot -19.7391 -13.722
rtoes 3.15952
lfemur -34.6375 7.25213 -6.24333
ltibia 52.5082
lfoot -7.95791 -0.076442
ltoes -1.37316
688
root -51.2603 17.4725 1.36631 98.1314 -79.3712 -92.6766
lowerback -5.7414 3.65466 7.34339
upperback 0.908148 4.06403 3.94428
thorax 4.40327 2.09362 0.392186
lowerneck -15.7893 -3.15542 -8.05223
upperneck 6.03426 -3.0379 4.39807
head 4.54243 -1.4257 2.40579
rclavicle -1.47598e-014 -1.39149e-015
rhumerus -26.4099 6.71973 -60.7019
rradius 100.508
rwrist 6.49498
rhand -15.0951 -24.4882
rfingers 7.12502
rthumb 11.073 -54.1761
lclavicle -1.47598e-014 -1.39149e-015
lhumerus -34.245 -2.50927 93.9254
lradius 49.0751
lwrist -16.8518
lhand -11.779 13.8094
lfingers 7.12502
lthumb 14.2699 43.2991
rfemur -0.0957387 4.80744 36.1163
rtibia 22.6144
rfoot -20.6208 -13.5019
rtoes 2.36692
lfemur -34.6375 7.25213 -6.24333
ltibia 52.5082
lfoot -7.95791 -0.076442
ltoes -1.37316
689
root -51.2603 17.4725 1.36631 98.1314 -79.3712 -92.6766
lowerback -5.7414 3.65466 7.34339
upperback 0.908148 4.06403 3.94428
thorax 4.40327 2.09362 0.392186
lowerneck -15.7893 -3.15542 -8.05223
upperneck 6.03426 -3.0379 4.39807
head 4.54243 -1.4257 2.40579
rclavicle -1.47598e-014 -1.39149e-015
rhumerus -26.4099 6.71973 -60.7019
rradius 100.508
rwrist 6.49498
rhand -15.0951 -24.4882
rfingers 7.12502
rthumb 11.073 -54.1761
lclavicle -1.47598e-014 -1.39149e-015
lhumerus -34.245 -2.50927 93.9254
lradius 49.0751
lwrist -16.8518
lhand -11.779 13.8094
lfingers 7.12502
lthumb 14.2699 43.2991
rfemur -0.0957387 4.80744 36.1163
rtibia 22.6144
rfoot -20.6208 -13.5019
rtoes 2.36692
lfemur -34.6375 7.25213 -6.24333
ltibia 52.5082
lfoot -7.95791 -0.076442
ltoes -1.37316
690
root -51.2603 17.4725 1.36631 98.1314 -79.3712 -92.6766
lowerback -5.7414 3.65466 7.34339
upperback 0.908148 4.06403 3.94428
thorax 4.40327 2.09362 0.392186
lowerneck -15.7893 -3.15542 -8.05223
upperneck 6.03426 -3.0379 4.39807
head 4.54243 -1.4257 2.40579
rclavicle -1.47598e-014 -1.39149e-015
rhumerus -26.4099 6.71973 -60.7019
rradius 100.508
rwrist 6.49498
rhand -15.0951 -24.4882
rfingers 7.12502
rthumb 11.073 -54.1761
lclavicle -1.47598e-014 -1.39149e-015
lhumerus -34.245 -2.50927 93.9254
lradius 49.0751
lwrist -16.8518
lhand -11.779 13.8094
lfingers 7.12502
lthumb 14.2699 43.2991
rfemur -0.0957387 4.80744 36.1163
rtibia 22.6144
rfoot -20.6208 -13.5019
rtoes 2.36692
lfemur -34.6375 7.25213 -6.24333
ltibia 52.5082
lfoot -7.95791 -0.076442
ltoes -1.37316
691
root -51.2603 17.4725 1.36631 98.1314 -79.3712 -92.6766
lowerback -5.7414 3.65466 7.34339
upperback 0.908148 4.06403 3.94428
thorax 4.40327 2.09362 0.392186
lowerneck -15.7893 -3.15542 -8.05223
upperneck 6.03426 -3.0379 4.39807
head 4.54243 -1.4257 2.40579
rclavicle -1.47598e-014 -1.39149e-015
rhumerus -26.4099 6.71973 -60.7019
rradius 100.508
rwrist 6.49498
rhand -15.0951 -24.4882
rfingers 7.12502
rthumb 11.073 -54.1761
lclavicle -1.47598e-014 -1.39149e-015
lhumerus -34.245 -2.50927 93.9254
lradius 49.0751
lwrist -16.8518
lhand -11.779 13.8094
lfingers 7.12502
lthumb 14.2699 43.2991
rfemur -0.0957387 4.80744 36.1163
rtibia 22.6144
rfoot -20.6208 -13.5019
rtoes 2.36692
lfemur -34.6375 7.25213 -6.24333
ltibia 52.5082
lfoot -7.95791 -0.076442
ltoes -1.37316
692
root -51.2603 17.4725 1.36631 98.1314 -79.3712 -92.6766
lowerback -5.7414 3.65466 7.34339
upperback 0.908148 4.06403 3.94428
thorax 4.40327 2.09362 0.392186
lowerneck -15.7893 -3.15542 -8.05223
upperneck 6.03426 -3.0379 4.39807
head 4.54243 -1.4257 2.40579
rclavicle -1.47598e-014 -1.39149e-015
rhumerus -26.4099 6.71973 -60.7019
rradius 100.508
rwrist 6.49498
rhand -15.0951 -24.4882
rfingers 7.12502
rthumb 11.073 -54.1761
lclavicle -1.47598e-014 -1.39149e-015
lhumerus -34.245 -2.50927 93.9254
lradius 49.0751
lwrist -16.8518
lhand -11.779 13.8094
lfingers 7.12502
lthumb 14.2699 43.2991
rfemur -0.0957387 4.80744 36.1163
rtibia 22.6144
rfoot -20.6208 -13.5019
rtoes 2.36692
lfemur -34.6375 7.25213 -6.24333
ltibia 52.5082
lfoot -7.95791 -0.076442
ltoes -1.37316
693
root -51.2603 17.4725 1.36631 98.1314 -79.3712 -92.6766
lowerback -5.7414 3.65466 7.34339
upperback 0.908148 4.06403 3.94428
thorax 4.40327 2.09362 0.392186
lowerneck -15.7893 -3.15542 -8.05223
upperneck 6.03426 -3.0379 4.39807
head 4.54243 -1.4257 2.40579
rclavicle -1.47598e-014 -1.39149e-015
rhumerus -26.4099 6.71973 -60.7019
rradius 100.508
rwrist 6.49498
rhand -15.0951 -24.4882
rfingers 7.12502
rthumb 11.073 -54.1761
lclavicle -1.47598e-014 -1.39149e-015
lhumerus -34.245 -2.50927 93.9254
lradius 49.0751
lwrist -16.8518
lhand -11.779 13.8094
lfingers 7.12502
lthumb 14.2699 43.2991
rfemur -0.0957387 4.80744 36.1163
rtibia 22.6144
rfoot -20.6208 -13.5019
rtoes 2.36692
lfemur -34.6375 7.25213 -6.24333
ltibia 52.5082
lfoot -7.95791 -0.076442
ltoes -1.37316
694
root -51.2603 17.4725 1.36631 98.1314 -79.3712 -92.6766
lowerback -5.7414 3.65466 7.34339
upperback 0.908148 4.06403 3.94428
thorax 4.40327 2.09362 0.392186
lowerneck -15.7893 -3.15542 -8.05223
upperneck 6.03426 -3.0379 4.39807
head 4.54243 -1.4257 2.40579
rclavicle -1.47598e-014 -1.39149e-015
rhumerus -26.4099 6.71973 -60.7019
rradius 100.508
rwrist 6.49498
rhand -15.0951 -24.4882
rfingers 7.12502
rthumb 11.073 -54.1761
lclavicle -1.47598e-014 -1.39149e-015
lhumerus -34.245 -2.50927 93.9254
lradius 49.0751
lwrist -16.8518
lhand -11.779 13.8094
lfingers 7.12502
lthumb 14.2699 43.2991
rfemur -0.0957387 4.80744 36.1163
rtibia 22.6144
rfoot -20.6208 -13.5019
rtoes 2.36692
lfemur -34.6375 7.25213 -6.24333
ltibia 52.5082
lfoot -7.95791 -0.076442
ltoes -1.37316
695
root -51.2603 17.4725 1.36631 98.1314 -79.3712 -92.6766
lowerback -5.7414 3.65466 7.34339
upperback 0.908148 4.06403 3.94428
thorax 4.40327 2.09362 0.392186
lowerneck -15.7893 -3.15542 -8.05223
upperneck 6.03426 -3.0379 4.39807
head 4.54243 -1.4257 2.40579
rclavicle -1.47598e-014 -1.39149e-015
rhumerus -26.4099 6.71973 -60.7019
rradius 100.508
rwrist 6.49498
rhand -15.0951 -24.4882
rfingers 7.12502
rthumb 11.073 -54.1761
lclavicle -1.47598e-014 -1.39149e-015
lhumerus -34.245 -2.50927 93.9254
lradius 49.0751
lwrist -16.8518
lhand -11.779 13.8094
lfingers 7.12502
lthumb 14.2699 43.2991
rfemur -0.0957387 4.80744 36.1163
rtibia 22.6144
rfoot -20.6208 -13.5019
rtoes 2.36692
lfemur -34.6375 7.25213 -6.24333
ltibia 52.5082
lfoot -7.95791 -0.076442
ltoes -1.37316
696
root -51.2603 17.4725 1.36631 98.1314 -79.3712 -92.6766
lowerback -5.7414 3.65466 7.34339
upperback 0.908148 4.06403 3.94428
thorax 4.40327 2.09362 0.392186
lowerneck -15.7893 -3.15542 -8.05223
upperneck 6.03426 -3.0379 4.39807
head 4.54243 -1.4257 2.40579
rclavicle -1.47598e-014 -1.39149e-015
rhumerus -26.4099 6.71973 -60.7019
rradius 100.508
rwrist 6.49498
rhand -15.0951 -24.4882
rfingers 7.12502
rthumb 11.073 -54.1761
lclavicle -1.47598e-014 -1.39149e-015
lhumerus -34.245 -2.50927 93.9254
lradius 49.0751
lwrist -16.8518
lhand -11.779 13.8094
lfingers 7.12502
lthumb 14.2699 43.2991
rfemur -0.0957387 4.80744 36.1163
rtibia 22.6144
rfoot -20.6208 -13.5019
rtoes 2.36692
lfemur -34.6375 7.25213 -6.24333
ltibia 52.5082
lfoot -7.95791 -0.076442
ltoes -1.37316
697
root -51.2603 17.4725 1.36631 98.1314 -79.3712 -92.6766
lowerback -5.7414 3.65466 7.34339
upperback 0.908148 4.06403 3.94428
thorax 4.40327 2.09362 0.392186
lowerneck -15.7893 -3.15542 -8.05223
upperneck 6.03426 -3.0379 4.39807
head 4.54243 -1.4257 2.40579
rclavicle -1.47598e-014 -1.39149e-015
rhumerus -26.4099 6.71973 -60.7019
rradius 100.508
rwrist 6.49498
rhand -15.0951 -24.4882
rfingers 7.12502
rthumb 11.073 -54.1761
lclavicle -1.47598e-014 -1.39149e-015
lhumerus -34.245 -2.50927 93.9254
lradius 49.0751
lwrist -16.8518
lhand -11.779 13.8094
lfingers 7.12502
lthumb 14.2699 43.2991
rfemur -0.0957387 4.80744 36.1163
rtibia 22.6144
rfoot -20.6208 -13.5019
rtoes 2.36692
lfemur -34.6375 7.25213 -6.24333
ltibia 52.5082
lfoot -7.95791 -0.076442
ltoes -1.37316
